<svg aria-hidden="true" style="position: absolute; width: 0; height: 0; overflow: hidden;" version="1.1" xmlns="http://www.w3.org/2000/svg" xmlns:xlink="http://www.w3.org/1999/xlink">
<defs>
<symbol id="icon-close-btn" viewBox="0 0 32 32">
<path  d="M32 3.223l-3.223-3.223-12.777 12.777-12.777-12.777-3.223 3.223 12.777 12.777-12.777 12.777 3.223 3.223 12.777-12.777 12.777 12.777 3.223-3.223-12.777-12.777 12.777-12.777z"></path>
</symbol>
<symbol id="icon-avatar-modal-close-btn" viewBox="0 0 32 32">
<path d="M32 3.223l-3.223-3.223-12.777 12.777-12.777-12.777-3.223 3.223 12.777 12.777-12.777 12.777 3.223 3.223 12.777-12.777 12.777 12.777 3.223-3.223-12.777-12.777 12.777-12.777z"></path>
</symbol>
<symbol id="icon-email" viewBox="0 0 28 28">
<path d="M28 10.219v15.281c0 1.375-1.125 2.5-2.5 2.5h-23c-1.375 0-2.5-1.125-2.5-2.5v-15.281c0-0.141 0.063-0.281 0.172-0.375 1.641-1.437 1.656-1.609 9.812-7.562 0.984-0.719 2.719-2.281 4.016-2.281s3.047 1.578 4.016 2.281c8.156 5.953 8.172 6.125 9.812 7.562 0.109 0.094 0.172 0.234 0.172 0.375zM19.187 19.359c2.438-1.766 4.141-3 5.391-3.938 0.219-0.156 0.266-0.469 0.094-0.688l-0.594-0.812c-0.172-0.219-0.484-0.266-0.703-0.094-1.234 0.906-2.922 2.156-5.359 3.906-0.969 0.703-2.719 2.266-4.016 2.266s-3.047-1.563-4.016-2.266c-2.438-1.766-4.125-3-5.359-3.906-0.219-0.172-0.531-0.125-0.703 0.094l-0.594 0.812c-0.172 0.219-0.125 0.531 0.094 0.688 1.25 0.938 2.953 2.172 5.391 3.938 1.219 0.875 3.141 2.641 5.187 2.641 2.063 0 4.031-1.797 5.187-2.641z"></path>
</symbol>
<symbol id="icon-user" viewBox="0 0 28 28">
<path d="M14 0c7.734 0 14 6.266 14 14 0 7.688-6.234 14-14 14-7.75 0-14-6.297-14-14 0-7.734 6.266-14 14-14zM23.672 21.109c1.453-2 2.328-4.453 2.328-7.109 0-6.609-5.391-12-12-12s-12 5.391-12 12c0 2.656 0.875 5.109 2.328 7.109 0.562-2.797 1.922-5.109 4.781-5.109 1.266 1.234 2.984 2 4.891 2s3.625-0.766 4.891-2c2.859 0 4.219 2.312 4.781 5.109zM20 11c0-3.313-2.688-6-6-6s-6 2.688-6 6 2.688 6 6 6 6-2.688 6-6z"></path>
</symbol>
</defs>
</svg>